name ./resultDataOpenSim/trcMotMarkerGrf/sub06/grf-12-04.mot
datacolumns 19
datarows 20
range 0.53600000 0.61200000
endheader

                time	     ground_force_vx	     ground_force_vy	     ground_force_vz	     ground_force_px	     ground_force_py	     ground_force_pz	   l_ground_force_vx	   l_ground_force_vy	   l_ground_force_vz	   l_ground_force_px	   l_ground_force_py	   l_ground_force_pz	     ground_torque_x	     ground_torque_y	     ground_torque_z	   l_ground_torque_x	   l_ground_torque_y	   l_ground_torque_z	
          0.53600000	        135.15223711	        777.81041494	        -24.80615081	         -0.78978076	          0.00000000	          0.03519161	          0.00000000	          0.00000000	          0.00000000	          0.00000000	          0.00000000	          0.00000000	          0.00000000	          1.81911531	          0.00000000	          0.00000000	          0.00000000	          0.00000000	
          0.54000000	        141.14892694	        784.99069360	        -24.75034675	         -0.78932985	          0.00000000	          0.03489066	          0.00000000	          0.00000000	          0.00000000	          0.00000000	          0.00000000	          0.00000000	          0.00000000	          1.93079484	          0.00000000	          0.00000000	          0.00000000	          0.00000000	
          0.54400000	        146.92387051	        790.52785708	        -24.82303552	         -0.78878245	          0.00000000	          0.03460861	          0.00000000	          0.00000000	          0.00000000	          0.00000000	          0.00000000	          0.00000000	          0.00000000	          2.01732810	          0.00000000	          0.00000000	          0.00000000	          0.00000000	
          0.54800000	        152.50071604	        794.42082839	        -24.97012959	         -0.78816562	          0.00000000	          0.03434523	          0.00000000	          0.00000000	          0.00000000	          0.00000000	          0.00000000	          0.00000000	          0.00000000	          2.07809402	          0.00000000	          0.00000000	          0.00000000	          0.00000000	
          0.55200000	        157.94281245	        796.81416921	        -25.13076953	         -0.78756346	          0.00000000	          0.03408953	          0.00000000	          0.00000000	          0.00000000	          0.00000000	          0.00000000	          0.00000000	          0.00000000	          2.11505008	          0.00000000	          0.00000000	          0.00000000	          0.00000000	
          0.55600000	        163.32115899	        797.69527478	        -25.22226600	         -0.78702243	          0.00000000	          0.03383680	          0.00000000	          0.00000000	          0.00000000	          0.00000000	          0.00000000	          0.00000000	          0.00000000	          2.13165559	          0.00000000	          0.00000000	          0.00000000	          0.00000000	
          0.56000000	        168.70533713	        796.76417650	        -25.15679369	         -0.78649575	          0.00000000	          0.03359736	          0.00000000	          0.00000000	          0.00000000	          0.00000000	          0.00000000	          0.00000000	          0.00000000	          2.13152666	          0.00000000	          0.00000000	          0.00000000	          0.00000000	
          0.56400000	        174.15046203	        793.70044430	        -24.88171631	         -0.78589212	          0.00000000	          0.03338175	          0.00000000	          0.00000000	          0.00000000	          0.00000000	          0.00000000	          0.00000000	          0.00000000	          2.11749504	          0.00000000	          0.00000000	          0.00000000	          0.00000000	
          0.56800000	        179.67890802	        788.56229468	        -24.38678257	         -0.78519542	          0.00000000	          0.03317958	          0.00000000	          0.00000000	          0.00000000	          0.00000000	          0.00000000	          0.00000000	          0.00000000	          2.09121291	          0.00000000	          0.00000000	          0.00000000	          0.00000000	
          0.57200000	        185.29309615	        781.79949124	        -23.67411222	         -0.78452687	          0.00000000	          0.03295767	          0.00000000	          0.00000000	          0.00000000	          0.00000000	          0.00000000	          0.00000000	          0.00000000	          2.05293141	          0.00000000	          0.00000000	          0.00000000	          0.00000000	
          0.57600000	        190.98029891	        773.76981708	        -22.75244161	         -0.78403930	          0.00000000	          0.03268918	          0.00000000	          0.00000000	          0.00000000	          0.00000000	          0.00000000	          0.00000000	          0.00000000	          2.00121418	          0.00000000	          0.00000000	          0.00000000	          0.00000000	
          0.58000000	        196.65135217	        764.31134895	        -21.66241270	         -0.78373071	          0.00000000	          0.03238808	          0.00000000	          0.00000000	          0.00000000	          0.00000000	          0.00000000	          0.00000000	          0.00000000	          1.93291484	          0.00000000	          0.00000000	          0.00000000	          0.00000000	
          0.58400000	        202.09916852	        752.92627661	        -20.46964914	         -0.78341083	          0.00000000	          0.03209617	          0.00000000	          0.00000000	          0.00000000	          0.00000000	          0.00000000	          0.00000000	          0.00000000	          1.84388465	          0.00000000	          0.00000000	          0.00000000	          0.00000000	
          0.58800000	        207.10095629	        739.36818399	        -19.22720733	         -0.78292575	          0.00000000	          0.03183557	          0.00000000	          0.00000000	          0.00000000	          0.00000000	          0.00000000	          0.00000000	          0.00000000	          1.73027695	          0.00000000	          0.00000000	          0.00000000	          0.00000000	
          0.59200000	        211.57964605	        723.90181387	        -17.96280756	         -0.78236011	          0.00000000	          0.03159154	          0.00000000	          0.00000000	          0.00000000	          0.00000000	          0.00000000	          0.00000000	          0.00000000	          1.58973040	          0.00000000	          0.00000000	          0.00000000	          0.00000000	
          0.59600000	        215.60395832	        706.92125795	        -16.68807243	         -0.78196128	          0.00000000	          0.03133398	          0.00000000	          0.00000000	          0.00000000	          0.00000000	          0.00000000	          0.00000000	          0.00000000	          1.42189148	          0.00000000	          0.00000000	          0.00000000	          0.00000000	
          0.60000000	        219.21245596	        688.39336989	        -15.39696226	         -0.78185233	          0.00000000	          0.03105779	          0.00000000	          0.00000000	          0.00000000	          0.00000000	          0.00000000	          0.00000000	          0.00000000	          1.22843463	          0.00000000	          0.00000000	          0.00000000	          0.00000000	
          0.60400000	        222.29276624	        667.77976774	        -14.06160423	         -0.78187448	          0.00000000	          0.03079721	          0.00000000	          0.00000000	          0.00000000	          0.00000000	          0.00000000	          0.00000000	          0.00000000	          1.01311019	          0.00000000	          0.00000000	          0.00000000	          0.00000000	
          0.60800000	        224.65847149	        644.52017453	        -12.63993712	         -0.78179952	          0.00000000	          0.03058736	          0.00000000	          0.00000000	          0.00000000	          0.00000000	          0.00000000	          0.00000000	          0.00000000	          0.78200210	          0.00000000	          0.00000000	          0.00000000	          0.00000000	
          0.61200000	        226.18203044	        618.49543366	        -11.08083860	         -0.78167074	          0.00000000	          0.03042244	          0.00000000	          0.00000000	          0.00000000	          0.00000000	          0.00000000	          0.00000000	          0.00000000	          0.54362910	          0.00000000	          0.00000000	          0.00000000	          0.00000000	
